<?xml version="1.0" standalone="no"?>
<!DOCTYPE svg PUBLIC "-//W3C//DTD SVG 20010904//EN"
 "http://www.w3.org/TR/2001/REC-SVG-20010904/DTD/svg10.dtd">
<svg version="1.0" xmlns="http://www.w3.org/2000/svg"
 width="1024.000000pt" height="1024.000000pt" viewBox="0 0 1024.000000 1024.000000"
 preserveAspectRatio="xMidYMid meet">

<g transform="translate(0.000000,1024.000000) scale(0.100000,-0.100000)"
fill="#000000" stroke="none">
<path d="M9160 9422 c-58 -27 -220 -116 -360 -199 -140 -82 -286 -168 -325
-190 -184 -105 -1523 -874 -1655 -950 -47 -28 -335 -194 -640 -370 -462 -267
-671 -388 -1022 -592 -24 -14 -30 -14 -50 -2 -45 29 -1469 842 -2088 1193
-140 80 -536 306 -880 503 -823 472 -836 479 -975 545 -153 73 -158 75 -146
52 12 -23 383 -441 646 -727 262 -287 385 -415 947 -987 355 -361 464 -478
451 -482 -139 -40 -213 -66 -302 -105 -466 -206 -880 -600 -1160 -1106 -63
-114 -70 -138 -47 -164 7 -9 60 -83 117 -166 109 -159 515 -729 858 -1205 113
-157 242 -337 286 -400 45 -63 187 -261 315 -440 128 -179 270 -377 315 -440
44 -63 215 -302 380 -530 164 -228 355 -494 424 -590 231 -323 705 -974 784
-1077 43 -57 83 -103 89 -103 6 0 16 6 22 14 73 90 472 633 801 1091 323 449
415 577 620 865 127 179 355 498 505 710 472 664 568 798 857 1195 243 335
783 1092 788 1107 12 31 -199 369 -342 548 -85 107 -282 304 -393 393 -197
158 -422 285 -635 356 -66 23 -128 41 -137 41 -23 0 -23 25 0 42 19 13 407
416 752 778 157 166 405 434 889 960 53 58 166 182 251 275 85 94 160 176 167
183 32 33 16 29 -107 -26z m-463 -444 c-45 -47 -244 -256 -442 -464 -198 -209
-436 -458 -530 -554 -93 -96 -298 -307 -453 -467 l-284 -293 -24 -117 c-60
-297 -55 -621 15 -1013 l17 -100 -1873 0 c-1780 0 -1874 1 -1869 18 11 39 56
355 66 462 20 227 7 440 -41 669 l-22 106 -381 386 c-210 212 -563 574 -786
805 -223 230 -454 470 -515 533 l-110 114 55 -31 c192 -106 620 -348 1100
-622 1491 -852 2180 -1247 2340 -1339 157 -91 176 -99 195 -87 149 96 2385
1386 3260 1881 154 87 298 169 320 181 21 13 40 22 42 21 1 -2 -35 -41 -80
-89z m-5496 -2180 c9 -114 9 -183 0 -300 -11 -143 -47 -407 -70 -510 -10 -42
-43 -78 -446 -481 -240 -241 -438 -437 -440 -437 -5 0 -381 527 -519 728 l-57
84 52 91 c256 447 609 793 1016 996 132 65 173 81 318 121 l100 27 17 -86 c10
-47 23 -152 29 -233z m4093 262 c275 -90 571 -277 802 -507 161 -160 354 -415
457 -603 l36 -65 -186 -260 c-240 -336 -384 -538 -392 -547 -3 -3 -205 190
-448 430 l-442 437 -30 185 c-64 390 -65 668 -5 949 7 32 8 33 47 27 22 -4 95
-24 161 -46z m-4144 -1655 l0 -395 -397 0 -398 0 395 395 c217 217 396 395
397 395 2 0 3 -178 3 -395z m4345 6 c206 -206 373 -376 370 -379 -3 -3 -359
346 -741 727 -2 2 -4 -163 -4 -368 l0 -372 386 2 c212 0 388 -2 391 -5 4 -3
-173 -6 -393 -6 l-399 0 0 390 c0 215 3 389 7 388 4 -2 176 -171 383 -377z
m-2220 -261 c246 -17 460 -66 709 -162 l80 -31 -60 -30 c-203 -103 -501 -212
-674 -248 -156 -31 -318 -24 -500 24 -156 41 -340 112 -523 202 l-127 63 83
30 c363 131 664 177 1012 152z m-1052 -334 c208 -102 420 -186 553 -220 86
-22 260 -56 285 -56 5 0 9 -441 9 -1002 0 -918 1 -1003 17 -1020 23 -25 68
-23 87 4 14 20 16 133 16 1019 l0 997 83 12 c211 31 462 118 764 266 l172 84
840 0 841 0 -95 -130 c-192 -263 -806 -1123 -1187 -1660 -184 -261 -582 -816
-769 -1075 -80 -110 -205 -283 -279 -385 -288 -399 -433 -591 -440 -583 -10
11 -163 222 -420 578 -119 165 -265 368 -325 450 -60 83 -165 229 -234 325
-68 96 -206 288 -305 425 -385 535 -1427 1993 -1453 2031 l-15 24 841 0 842 0
172 -84z"/>
<path d="M3044 7075 c-536 -159 -1016 -570 -1328 -1138 -14 -26 -26 -52 -26
-56 0 -18 546 -791 559 -791 3 0 198 192 432 428 l426 427 16 80 c50 247 62
364 62 620 0 204 -4 269 -19 353 -11 57 -24 102 -30 101 -6 0 -47 -11 -92 -24z"/>
<path d="M7086 7013 c-42 -231 -38 -521 10 -828 14 -88 28 -176 31 -197 5 -32
55 -85 440 -468 401 -398 436 -430 449 -413 7 10 73 101 146 203 72 102 160
224 194 272 134 183 214 298 214 306 0 15 -128 222 -198 319 -310 431 -700
725 -1137 858 -64 19 -120 35 -125 35 -4 0 -15 -39 -24 -87z"/>
<path d="M2755 5390 l-370 -370 373 0 372 0 1 118 c1 214 -2 616 -4 619 -2 1
-169 -164 -372 -367z"/>
<path d="M4830 5125 c-152 -18 -256 -41 -419 -92 -220 -68 -216 -59 -70 -130
121 -60 267 -119 399 -161 233 -76 438 -88 640 -38 162 40 445 146 589 220 64
34 36 51 -194 121 -286 87 -642 117 -945 80z"/>
<path d="M4682 2104 c-27 -18 -29 -55 -4 -77 17 -15 62 -17 440 -17 409 0 423
1 442 20 27 27 25 44 -6 69 -26 20 -37 21 -438 21 -356 0 -415 -2 -434 -16z"/>
</g>
</svg>
